HIERARCHY
ROOT Hips
{
	OFFSET 0.000000 0.000000 0.000000
	CHANNELS 6 Xposition Yposition Zposition Zrotation Yrotation Xrotation 
	JOINT LHipJoint
	{
		OFFSET 0.000000 0.000000 0.000000
		CHANNELS 3 Zrotation Yrotation Xrotation
		JOINT LeftUpLeg
		{
			OFFSET 1.363060 -1.794630 0.839290
			CHANNELS 3 Zrotation Yrotation Xrotation
			JOINT LeftLeg
			{
				OFFSET 2.448110 -6.726130 0.000000
				CHANNELS 3 Zrotation Yrotation Xrotation
				JOINT LeftFoot
				{
					OFFSET 2.562200 -7.039590 0.000000
					CHANNELS 3 Zrotation Yrotation Xrotation
					JOINT LeftToeBase
					{
						OFFSET 0.157640 -0.433110 2.322550
						CHANNELS 3 Zrotation Yrotation Xrotation
						End Site
						{
							OFFSET 0.000000 0.000000 0.000000
						}
					}
				}
			}
		}
	}
	JOINT RHipJoint
	{
		OFFSET 0.000000 0.000000 0.000000
		CHANNELS 3 Zrotation Yrotation Xrotation
		JOINT RightUpLeg
		{
			OFFSET -1.305520 -1.794630 0.839290
			CHANNELS 3 Zrotation Yrotation Xrotation
			JOINT RightLeg
			{
				OFFSET -2.542530 -6.985550 0.000000
				CHANNELS 3 Zrotation Yrotation Xrotation
				JOINT RightFoot
				{
					OFFSET -2.568260 -7.056230 0.000000
					CHANNELS 3 Zrotation Yrotation Xrotation
					JOINT RightToeBase
					{
						OFFSET -0.164730 -0.452590 2.363150
						CHANNELS 3 Zrotation Yrotation Xrotation
						End Site
						{
							OFFSET 0.000000 0.000000 0.000000
						}
					}
				}
			}
		}
	}
}
MOTION
Frames: 19
Frame Time: 0.008333
26.223267 16.454600 2.040164 160.243814 -86.608974 -146.922683 -9.353634 -0.038586 4.140879 -11.520596 -3.822991 -48.128951 -1.491409 1.209468 34.686121 1.217367 5.660193 -4.730237 0.582901 0.000000 -16.269800 10.002479 -4.949913 1.202903 5.412620 -4.105619 8.847949 2.238638 -1.010700 14.977058 0.770447 7.843384 -0.215451 0.735600 -0.000000 -69.248400
26.072981 16.446008 2.054014 159.350035 -86.472119 -146.379794 -9.347810 -0.013994 3.990918 -11.833020 -3.563505 -47.636446 -1.471721 1.269000 35.898744 1.240679 5.625833 -5.724469 0.437500 0.000001 -15.663200 10.143607 -5.040002 1.120915 4.772832 -4.419150 8.334323 2.086923 -1.289402 17.256749 0.815426 8.519066 1.026450 0.972900 -0.000000 -72.413299
25.924781 16.436339 2.068733 158.460112 -86.305762 -145.849936 -9.337613 0.018258 3.836205 -12.170606 -3.285675 -47.076615 -1.465321 1.318657 37.013526 1.267593 5.598694 -6.787487 0.284701 -0.000000 -15.127900 10.304804 -5.121719 1.027460 4.062637 -4.811757 7.649100 1.910380 -1.575660 19.788148 0.850113 9.300552 2.396419 1.277800 0.000000 -75.420300
25.778668 16.425322 2.084171 157.586824 -86.111604 -145.332396 -9.323039 0.058707 3.679734 -12.533252 -2.989851 -46.479036 -1.469708 1.360892 38.040758 1.299046 5.586528 -7.888003 0.128199 0.000000 -14.690700 10.484226 -5.192458 0.931128 3.298343 -5.257946 6.787524 1.706343 -1.862010 22.551742 0.865773 10.148450 3.910646 1.660000 0.000000 -78.117700
25.635191 16.412772 2.100019 156.661072 -85.897270 -144.747759 -9.300009 0.107633 3.524828 -12.925896 -2.685163 -45.867448 -1.482275 1.396983 38.990207 1.335841 5.597018 -8.997138 -0.029300 -0.000000 -14.366700 10.684545 -5.249218 0.837994 2.491042 -5.743087 5.748895 1.474352 -2.140999 25.522033 0.854418 11.020597 5.576540 2.126200 0.000000 -80.351300
25.494404 16.398625 2.115972 155.649552 -85.671582 -144.054839 -9.266135 0.164668 3.374681 -13.348113 -2.380562 -45.263540 -1.500352 1.428407 39.873556 1.377830 5.631678 -10.091273 -0.186100 0.000000 -14.156000 10.904295 -5.287724 0.752826 1.662345 -6.245358 4.545889 1.217579 -2.405197 28.661334 0.809574 11.858641 7.383898 2.672800 -0.000000 -81.954600
25.356405 16.382993 2.131474 154.440954 -85.445490 -143.136815 -9.214109 0.230360 3.232869 -13.807363 -2.094956 -44.676398 -1.521804 1.455035 40.695905 1.425238 5.694291 -11.150578 -0.341300 0.000000 -14.044100 11.147961 -5.303656 0.676253 0.818832 -6.761330 3.193300 0.942200 -2.649453 31.932576 0.728245 12.609442 9.306271 3.286000 0.000000 -82.787799
25.221448 16.366115 2.146501 153.094416 -85.226182 -142.052034 -9.146911 0.303751 3.101159 -14.291704 -1.832398 -44.115218 -1.544660 1.478833 41.467905 1.476449 5.776391 -12.165722 -0.494700 -0.000000 -14.004100 11.405221 -5.292038 0.607866 -0.005817 -7.266811 1.724862 0.658106 -2.870363 35.286953 0.611479 13.195329 11.285519 3.927100 0.000000 -82.724700
25.089405 16.348366 2.160519 151.497832 -85.021143 -140.693041 -9.056925 0.386096 2.981801 -14.808410 -1.613679 -43.569479 -1.568183 1.498967 42.185499 1.531443 5.879312 -13.128450 -0.646000 -0.000000 -14.000800 11.680482 -5.249074 0.542056 -0.815337 -7.773263 0.164129 0.374766 -3.069145 38.690287 0.464380 13.562317 13.250348 4.545600 0.000000 -81.753400
24.960760 16.330299 2.173724 149.734543 -84.832894 -139.149647 -8.949884 0.476669 2.874664 -15.341531 -1.438580 -43.030779 -1.591870 1.517049 42.850552 1.588237 5.992057 -14.040043 -0.795400 0.000000 -13.996200 11.961812 -5.172728 0.473812 -1.585357 -8.270105 -1.451299 0.100834 -3.248941 42.101064 0.294646 13.636010 15.109888 5.068100 -0.000000 -79.954500
24.835330 16.312500 2.185965 147.768786 -84.661013 -137.393794 -8.823444 0.576516 2.779945 -15.891367 -1.318122 -42.478401 -1.616295 1.532691 43.452326 1.646606 6.113885 -14.901139 -0.942900 0.000000 -13.956000 12.248846 -5.062082 0.396664 -2.319727 -8.767001 -3.096600 -0.159102 -3.415463 45.489062 0.110287 13.364189 16.775087 5.422200 0.000000 -77.547700
24.713041 16.295646 2.197515 145.654027 -84.501302 -135.488181 -8.682363 0.684868 2.695974 -16.447315 -1.250726 -41.894423 -1.642283 1.546553 43.981094 1.705660 6.240480 -15.715387 -1.088700 -0.000000 -13.853600 12.533907 -4.917679 0.305908 -3.010239 -9.259968 -4.745815 -0.404029 -3.574474 48.823748 -0.081749 12.700016 18.160730 5.540900 -0.000000 -74.826000
24.593992 16.280534 2.208950 143.495857 -84.349055 -133.542912 -8.537018 0.799313 2.620278 -16.992056 -1.226558 -41.265272 -1.670781 1.559610 44.427969 1.764105 6.365606 -16.488213 -1.232299 0.000000 -13.673400 12.804548 -4.742394 0.199305 -3.640276 -9.736355 -6.377167 -0.635933 -3.730400 52.076945 -0.276688 11.615149 19.194573 5.377900 0.000000 -72.077399
24.477659 16.267699 2.220478 141.329912 -84.203308 -131.600694 -8.391161 0.917752 2.551018 -17.518911 -1.239311 -40.577049 -1.702439 1.571146 44.783216 1.821570 6.488166 -17.222628 -1.373900 0.000000 -13.411500 13.057655 -4.540974 0.077433 -4.206758 -10.190345 -7.978934 -0.858036 -3.887258 55.228678 -0.471848 10.118416 19.816836 4.922900 0.000000 -69.500100
24.364119 16.257780 2.232685 139.238384 -84.060699 -129.743994 -8.253713 1.036782 2.485905 -18.015378 -1.277245 -39.823981 -1.737874 1.581029 45.037210 1.877598 6.607732 -17.919863 -1.512700 0.000000 -13.077500 13.284619 -4.318380 -0.057791 -4.698888 -10.607975 -9.544451 -1.073796 -4.046428 58.258034 -0.665933 8.248215 19.986830 4.202000 0.000000 -67.164201
24.252587 16.251314 2.246008 137.289143 -83.921578 -128.039251 -8.132015 1.152779 2.422882 -18.471013 -1.327727 -39.005421 -1.777166 1.588625 45.184585 1.931663 6.723803 -18.579574 -1.648200 -0.000001 -12.690600 13.479379 -4.080896 -0.202744 -5.106493 -10.977292 -11.072489 -1.285327 -4.207949 61.145300 -0.858026 6.077267 19.682011 3.277400 0.000000 -65.022200
24.142974 16.248704 2.260791 135.529413 -83.787770 -126.531227 -8.031307 1.262794 2.360784 -18.878283 -1.379541 -38.124183 -1.820050 1.592936 45.221089 1.983433 6.837470 -19.198732 -1.779400 -0.000000 -12.278000 13.638303 -3.834997 -0.352629 -5.423036 -11.289067 -12.564629 -1.493007 -4.370344 63.869417 -1.047021 3.706669 18.905156 2.238500 -0.000000 -62.953000
24.034541 16.250167 2.277323 133.998333 -83.663439 -125.255069 -7.955847 1.364196 2.298908 -19.229890 -1.421958 -37.188509 -1.865837 1.593066 45.147330 2.032232 6.948144 -19.773210 -1.905100 0.000001 -11.870300 13.758815 -3.587270 -0.502002 -5.641376 -11.535756 -14.024239 -1.695152 -4.530832 66.407777 -1.230920 1.255592 17.686471 1.187300 0.000000 -60.812000
23.926906 16.255984 2.295632 132.701871 -83.550680 -124.212145 -7.905906 1.455951 2.236874 -19.525182 -1.449364 -36.204643 -1.914034 1.587948 44.960850 2.077842 7.057900 -20.296215 -2.023900 0.000000 -11.496600 13.841946 -3.342466 -0.646056 -5.763105 -11.714078 -15.454430 -1.888336 -4.685894 68.736905 -1.406490 -1.148809 16.085715 0.222900 0.000000 -58.455800
